<?xml version="1.0" encoding="UTF-8" standalone="no"?>
<svg
   xmlns:dc="http://purl.org/dc/elements/1.1/"
   xmlns:cc="http://creativecommons.org/ns#"
   xmlns:rdf="http://www.w3.org/1999/02/22-rdf-syntax-ns#"
   xmlns:svg="http://www.w3.org/2000/svg"
   xmlns="http://www.w3.org/2000/svg"
   viewBox="0 0 1040.12 734.88"
   height="734.88"
   width="1040.12"
   xml:space="preserve"
   id="svg2"
   version="1.1"><metadata
     id="metadata8"><rdf:RDF><cc:Work
         rdf:about=""><dc:format>image/svg+xml</dc:format><dc:type
           rdf:resource="http://purl.org/dc/dcmitype/StillImage" /></cc:Work></rdf:RDF></metadata><defs
     id="defs6" /><g
     transform="matrix(1.3333333,0,0,-1.3333333,0,734.88)"
     id="g10"><g
       transform="scale(0.1)"
       id="g12"><path
         id="path14"
         style="fill:#ffffff;fill-opacity:1;fill-rule:nonzero;stroke:none"
         d="m 0,5420.78 h 1185.13 v -3180.3 c 0,-504.58 228.12,-802.31 413.72,-929.91 -193.33,-168.21 -779.127,-319 -1221.858,44.46 C 117.93,1567.7 0,1921.49 0,2252.09 Z M 7402.65,2777.95 v 334.45 h 363.45 v 1169.66 h -398.26 c -152.73,705.65 -779.13,1229.58 -1529.25,1229.58 -862.26,0 -1564.04,-701.8 -1564.04,-1564.05 V 1215.83 c 245.54,-34.79 539.4,3.88 788.79,214.6 259.06,212.66 377,566.46 377,897.05 v 102.46 h 591.59 v 1171.59 h -591.59 v 353.8 c 0,220.39 177.86,398.26 398.25,398.26 220.4,0 398.27,-177.87 398.27,-398.26 V 2781.81 c 0,-864.19 701.79,-1565.98 1564.04,-1565.98 v 1167.72 c -220.39,0 -398.25,175.92 -398.25,394.4 z M 2919.3,4285.92 V 2563.34 c 0,-96.66 -83.13,-175.93 -181.73,-175.93 -98.6,0 -179.8,79.27 -179.8,175.93 V 4285.92 H 1386.19 V 2265.63 c 0,-363.48 121.79,-823.6 686.32,-974.4 562.6,-148.87 885.46,162.39 885.46,162.39 -30.94,-204.92 -220.4,-355.72 -531.67,-386.66 -235.85,-23.19 -535.52,56.08 -684.39,117.94 V 113.84 C 2122.78,-0.21875 2524.9,-36.9375 2923.17,42.3203 3640.43,179.57 4092.81,778.91 4092.81,1579.29 V 4293.66 H 2919.3" /></g></g></svg>