<?xml version="1.0" encoding="UTF-8" standalone="no"?>
<svg width="2059px" height="887px" viewBox="0 0 2059 887" version="1.1" xmlns="http://www.w3.org/2000/svg" xmlns:xlink="http://www.w3.org/1999/xlink">
    <!-- Generator: Sketch 41.2 (35397) - http://www.bohemiancoding.com/sketch -->
    <title>Slice 1</title>
    <desc>Created with Sketch.</desc>
    <defs></defs>
    <g id="Page-1" stroke="none" stroke-width="1" fill="none" fill-rule="evenodd">
        <path d="M250.00909,242.153241 L250.00909,357.337919 L493.469182,357.337919 L493.469182,598.18785 L250.00909,598.18785 L250.00909,883.526679 L0,883.526679 L0,1.30693942 C0,0.453827144 0.432001535,4.4018555e-05 1.3068954,4.4018555e-05 L531.427233,4.4018555e-05 L548.445915,242.153241 L250.00909,242.153241 Z" id="path6353" fill="#000000"></path>
        <path d="M1262.19232,135.811888 C1345.13298,220.473298 1386.62691,322.672518 1386.62691,442.387767 C1386.62691,562.970649 1345.12935,665.58735 1262.19232,750.259651 C1179.23713,834.917431 1079.18703,877.246321 962.034746,877.246321 C844.022091,877.246321 743.525465,834.917431 660.588431,750.259651 C577.629615,665.59098 536.161098,562.970649 536.161098,442.387767 C536.161098,322.668888 577.629615,220.473298 660.588431,135.811888 C743.525465,51.1504779 844.022091,8.8179577 962.034746,8.8179577 C1079.1834,8.8179577 1179.23713,51.1504779 1262.19232,135.811888 Z M890.199062,619.406749 C890.199062,639.093676 897.455962,656.188594 912.006064,670.720545 C926.534385,685.270647 944.075825,692.531177 964.597713,692.531177 C985.123231,692.531177 1002.4396,685.270647 1016.55044,670.720545 C1030.66491,656.188594 1037.71851,639.093676 1037.71851,619.406749 L1037.71851,261.520704 C1037.71851,240.998816 1030.66491,223.479157 1016.55044,208.929055 C1002.44323,194.400735 985.126862,187.122053 964.597713,187.122053 C944.075825,187.122053 926.538015,194.400735 912.006064,208.929055 C897.452332,223.479157 890.199062,240.998816 890.199062,261.520704 L890.199062,619.406749 Z" id="path6355" fill="#000000"></path>
        <polygon id="path6357" fill="#000000" points="1776.6771 886.154991 1651.02637 662.320112 1529.29632 886.154991 1254.41992 886.154991 1516.20922 428.022809 1268.81755 4.4018555e-05 1551.54985 4.4018555e-05 1654.95795 191.104454 1759.66931 4.4018555e-05 2033.23156 4.4018555e-05 1791.07836 425.401757 2058.10251 886.151361 1776.6771 886.151361"></polygon>
    </g>
</svg>