<svg id="ARTWORK" xmlns="http://www.w3.org/2000/svg" viewBox="0 0 140 140.9"><defs><style>.cls-1{fill:#ed1c2e;}.cls-2{fill:#008348;}.cls-3{fill:#fff;}</style></defs><title>tofr_corporate_signature-01</title><path class="cls-1" d="M76.3,64.3a8,8,0,0,0,2.2,5.1,8.48,8.48,0,0,0,3,2.3c.9.3.9.3,1.2-.2.4-.7,2.5-3.3,2.5-6.8s-.1-3.1-.5-3a38.76,38.76,0,0,1-8.1,2.2S76.3,63.9,76.3,64.3Z"/><path class="cls-1" d="M66.5,40.7c-4.2,2.6.3,5,3.2,3.2a30,30,0,0,0,4.1-2.8c.7-.4,0-.6,0-.6C73.4,40.4,68.9,39.2,66.5,40.7Z"/><path class="cls-1" d="M80,55.5c3.8-2.5,8.6-5,9.5-8.7.7-3.1-.4-7.9-6.2-10.9a1.23,1.23,0,0,0-.5-.2c-.3-.1-.6,0,0,.7s2.3,3.2,2.5,5,1.3,4.9-4.2,8.7-7,4.1-9,6.2-3,5.5-2.6,6.4c0,0-.2.1.3.3a22.5,22.5,0,0,1,4,2.1c.8.6.5-.1.6-.4A13,13,0,0,1,80,55.5Z"/><path class="cls-1" d="M72.6,48.5c.9-.7,2.3-1.4,4-2.5a2.17,2.17,0,0,0,1.2-2.1,3.08,3.08,0,0,0-1.6-2.2.57.57,0,0,0-.8.2A14.67,14.67,0,0,1,69.3,46a5.42,5.42,0,0,1-5.9-1.7,5.55,5.55,0,0,0,1.2,5.8,15,15,0,0,0,5.3,3.7A7.26,7.26,0,0,1,72.6,48.5Z"/><path class="cls-2" d="M87.9,93.1a36.69,36.69,0,0,1-6.4,9.6,32.34,32.34,0,0,1-6,4.9c-1.1.7-.4.4,0,.3s2.5-.5,7.6-3.6A32.89,32.89,0,0,0,94,93a30.72,30.72,0,0,0,4.1-12.4c.1-1.5.1-2.8.1-2.8s0-.7-.4,0a10.21,10.21,0,0,1-3.2,3.3,28.69,28.69,0,0,1-3.9,2.5c-.6.2-.3.1-.3.6C90.1,84.7,90.4,87.7,87.9,93.1Z"/><path class="cls-1" d="M92.4,57.8a41.53,41.53,0,0,1-4.9,2.9s-.5,0-.5.4a14.75,14.75,0,0,1-.4,6.7,15.7,15.7,0,0,1-2.2,4c-.2.4-.4.4.2.5a12.73,12.73,0,0,0,6.6-.6A17.74,17.74,0,0,0,99,65c1.6-2.6,3.8-5.8,7.3-6.3.6-.1.4-1.2.3-1.8,0,0,.3-1.7-1.7-4.6a14.28,14.28,0,0,0-3.9-3.9c-.3-.2-.5-.3-.7.1a23.8,23.8,0,0,1-2.9,4.4A21.2,21.2,0,0,1,92.4,57.8Z"/><path class="cls-1" d="M79.1,73c.7.1.3-.4.1-.7S75,67.9,73.8,67a15.69,15.69,0,0,0-10.7-3.4c-5.9.3-7.8,1.2-11.5.7a20.07,20.07,0,0,1-6.4-1.6s-.7-.4-.3.4A29.59,29.59,0,0,1,47,68.9c.5,2.6,1.3,7.2,7.2,8.9,5,1.4,8.4-2,12.4-3.4A34.14,34.14,0,0,1,79.1,73Z"/><path class="cls-1" d="M68.2,37.6c-4.9-.9-8.4,2-9.5,2.6-1.4.8-5.7,5.9-2.2,10.2,3.7,4.6,9.9,4.2,10.5,4.2s.4-.1.4-.1c-.3-.3-7.7-4.1-6.2-9.8,1.5-5.5,6-5.9,7-6.5C69,37.7,68.2,37.6,68.2,37.6Z"/><path class="cls-1" d="M97.6,69.5a16.2,16.2,0,0,1-7.9,4.6c-4.1,1-9.4.4-16.3.7a24.21,24.21,0,0,0-11.2,3.7c-.8.5-.9.3-.7,3.8a8.19,8.19,0,0,0,3.9,6.3c.9.5.6.6,1.1.1a13.91,13.91,0,0,1,5.1-3.3c5.9-2.4,9.1-2.2,13.8-2.6a15.25,15.25,0,0,0,10.3-5.2,11.14,11.14,0,0,0,2.5-7.8C98.2,68.7,97.6,69.5,97.6,69.5Z"/><path class="cls-2" d="M52.7,79.4a10.2,10.2,0,0,1-5.6-4.1c-1.9,2.2-2,7.2-1.1,9.4a44.43,44.43,0,0,1,1.7,5.5c0,.4.1.5.5.4a18.49,18.49,0,0,0,6.7-1.3,11.74,11.74,0,0,0,5.4-4c-.9-1.9-.5-5.8-.5-5.8C55.6,80.2,54.6,79.8,52.7,79.4Z"/><path class="cls-1" d="M76.2,31.9a10.81,10.81,0,0,1-2.1,1.8A17,17,0,0,0,72,35a6.24,6.24,0,0,0-1.7,2c-.5,1.1,1,.9,1.6,1.1a12.2,12.2,0,0,1,6.2,3.1c2.8,2.8,1.1,5.3-.2,6-1.1.6-4.4,2.6-4.9,3.4-.7,1-1.3,2.9-1.1,3,0,0,0,.1.2,0,1-.6,4.1-2.9,5.6-3.6s7.3-3.8,5.7-8.5-5.9-9.1-6.5-9.7C76.5,31.5,76.4,31.7,76.2,31.9Z"/><path class="cls-1" d="M62.5,61.9c.7.1,4.1.2,4.7.3s.3.1.3-.3.4-3.6,1.6-4.8c.5-.6.4-.7-.1-.7a5.64,5.64,0,0,0-.7.1,23.83,23.83,0,0,1-6.1-.6s-.5-.3-.5.3.2,4.8.3,5.1S61.8,61.8,62.5,61.9Z"/><path class="cls-2" d="M64.3,105.4a25.51,25.51,0,0,0,12-8.9c2-2.8,4.5-7.7,4.6-11.4a45.58,45.58,0,0,0-7.3,1.5,26,26,0,0,0-6.7,4.2c-.4.6-.6.5-1.2.2a22.24,22.24,0,0,1-4.5-3.6c-.2-.3-1.3,1.1-2.6,2a20.86,20.86,0,0,1-12.1,3.2,21,21,0,0,0-.7-3.1c-.5-1.6-2.2-5.5-2.1-7.8a33,33,0,0,1-8.2-.2c-3.2-.7-5.1-1.1-7-2.3,0,0-.3,0-.2.6s1.8,10.8,8.4,18.5c4.8,5.7,9.9,7.3,14.8,8.3A29.82,29.82,0,0,0,64.3,105.4Z"/><path class="cls-2" d="M106.6,77.8c-1.2.2-5.3.1-5.7.1s-.4.1-.4.4.2-.8-.4,3.4a35.21,35.21,0,0,1-13.8,22.9,31,31,0,0,1-12.6,5.6,39.45,39.45,0,0,1-11.1.6c-.4-.1-.3-.3-.1-.3a5.64,5.64,0,0,1,.7-.1,23.3,23.3,0,0,0,8.1-2.4,34,34,0,0,0,8-5.8,28.27,28.27,0,0,0,6.8-9.7c2.1-4.9,2.1-7.6,2.1-7.6.2-.7-.5-.4-.5-.4a19.67,19.67,0,0,1-3.3.4,2.7,2.7,0,0,1-.9,0c-.2,0-.3.1-.4.7a36.7,36.7,0,0,1-1.2,5.3c-4.9,12.6-14.5,15.7-18.8,17-6.5,2-14.5.2-14.5.2-.4,0,0,.1,0,.1a29.59,29.59,0,0,0,5.1,2.3,32.19,32.19,0,0,0,8.6,2.1,40.49,40.49,0,0,0,13.7-.5,36.46,36.46,0,0,0,9.8-3.5A35.08,35.08,0,0,0,97,100a36.14,36.14,0,0,0,7.6-12.3,36.18,36.18,0,0,0,2.3-8.3C106.9,79,107.3,77.7,106.6,77.8Z"/><path class="cls-2" d="M111,66.2a16.13,16.13,0,0,0-4.2-5.1.88.88,0,0,0-1.2-.1c-3.1,1.3-5.4,5.5-5.7,6.1a1.63,1.63,0,0,0-.1,1.2c.5,4.5-.4,6.1-.7,6.6s-.5.8.7.9a31.65,31.65,0,0,0,7.5-.1,26.72,26.72,0,0,0,7.1-2.1c.4-.2.5,0-.2-.9C113,71.2,112.3,69,111,66.2Z"/><path class="cls-1" d="M41.7,58.9a22.41,22.41,0,0,0,8.2,3.5c4.2.6,6.3.6,9.9-.3,0,0,.5.1.3-.8a30,30,0,0,1-.3-5.8c.1-.6-.7-.7-1.4-1a9.3,9.3,0,0,1-4-3.9,8.45,8.45,0,0,1-.5-6.6,2.61,2.61,0,0,0,.3-.8c.1-.3.2-.4-.4-.5a6.16,6.16,0,0,0-2.5.3c-.9.2-4.7.9-7.4,6.4A22.22,22.22,0,0,0,41.7,58.9Z"/><path class="cls-1" d="M55.2,41.2A14.77,14.77,0,0,1,60.5,37c3.1-1.6,8.2-1.4,8.2-1.4a10.59,10.59,0,0,1,3.5-2.9,11.18,11.18,0,0,0,3.5-2.9c.6-.7.8-.5,1.4,0s6.7,4.6,8.5,5.7,6.3,5.1,5.7,9.9-3.5,7.4-8.5,10.3-6,6.5-6,6.5c.2.3,5.8-.8,11.6-4,4.5-2.5,9.3-7,11-12,4.2-12.7-9.3-15.6-9.3-15.6-2.7-7-11.8-4.9-11.8-4.9-10.6-4.3-17,3.4-17,3.4-10.2.5-13.5,8.1-14.5,12a12.68,12.68,0,0,0-.3,2.4C50.2,40.6,55.2,41.2,55.2,41.2Z"/><path class="cls-2" d="M43.6,79.5c.3-2.3,1-3,1.4-4.4a15.83,15.83,0,0,0-.3-7.7,17.48,17.48,0,0,0-2.4-4.8.91.91,0,0,0-1.1-.3A22.76,22.76,0,0,0,30,69.5a26.78,26.78,0,0,1-4.7,4.4,17.57,17.57,0,0,0,8,5A21.81,21.81,0,0,0,43.6,79.5Z"/><path class="cls-2" d="M29.8,66.7a24,24,0,0,1,9.8-5.9c.5-.2.3-.8.3-1.9,0,0,.2-7.2,3.9-12.4.2-.3.5-.5.5-.8.1-.8.3-2.2.3-2.2s.1-.5-.4-.2-6.6,5-9.2,9.2a47.32,47.32,0,0,0-6.1,14.2C28.6,67.8,28.6,67.7,29.8,66.7Z"/><path class="cls-3" d="M114.8,70.1c-.8-1.6-1.3-3-2.3-4.9a14.19,14.19,0,0,0-3.8-4.8c-.2-.2-.5-.3-.5-.6s.1-.7.1-1c.9-3.9-2-7.9-3.2-9.3a20.13,20.13,0,0,0-3.5-2.9c-.4-.1-.3-.2-.2-.6,1.2-5,.8-7.8-1-10.8-3.1-5.1-9.2-6.5-9.2-6.5a9.25,9.25,0,0,0-4.5-4.1,14.62,14.62,0,0,0-8.5-.9,15.72,15.72,0,0,0-9.9-.7,15.25,15.25,0,0,0-7.5,4.2c-4.8.6-5.8.9-8.9,3-4.7,3.3-6.4,9.2-6.4,9.2-.4,1.2-.1.7-.6,1.1a58.48,58.48,0,0,0-7,5.4,38.61,38.61,0,0,0-7.8,10.8c-2.9,5.5-3.8,13.1-3.8,13.1-.1.9-.2.9-.7,1.3A27.73,27.73,0,0,1,23.1,73c-.3.2-.4.3-.1.7.9,1.1,1.9,2.7,2.4,3.1s.3.7.3.7a43.29,43.29,0,0,0,3.2,12.1A36,36,0,0,0,39,104a42,42,0,0,0,19.4,10.1,41.84,41.84,0,0,0,36.1-8.8,42.73,42.73,0,0,0,10.8-13.9c2.7-5.5,3.8-13.3,3.8-13.3,0-.7.3-.5,2.8-1.3a22.81,22.81,0,0,0,4.9-2.4c.2-.2.8-.2.1-1A12.39,12.39,0,0,1,114.8,70.1ZM101.1,48.4a15.91,15.91,0,0,1,3.9,3.9c2,2.9,1.7,4.6,1.7,4.6.1.7.3,1.7-.3,1.8-3.5.6-5.7,3.7-7.3,6.3a18.4,18.4,0,0,1-7.8,6.7,12.73,12.73,0,0,1-6.6.6c-.6-.1-.4-.1-.2-.5a18.29,18.29,0,0,0,2.2-4,13.39,13.39,0,0,0,.4-6.7c-.1-.4.4-.5.4-.5a33.83,33.83,0,0,0,4.9-2.9,20.61,20.61,0,0,0,5.2-4.9,23.8,23.8,0,0,0,2.9-4.4C100.6,48.1,100.8,48.2,101.1,48.4ZM90.5,83.6a23.59,23.59,0,0,0,3.9-2.5,10.35,10.35,0,0,0,3.2-3.3c.4-.7.4,0,.4,0s0,1.3-.1,2.8c.1,1.5-.7,6.8-3.9,12.4a31.2,31.2,0,0,1-10.9,11.3c-5.1,3.1-7.2,3.5-7.6,3.6s-1.1.4,0-.3a30.71,30.71,0,0,0,6-4.9,36.69,36.69,0,0,0,6.4-9.6c2.5-5.4,2.3-8.5,2.3-8.9S90,83.9,90.5,83.6Zm7.6-13.8a11.14,11.14,0,0,1-2.5,7.8,14.48,14.48,0,0,1-10.3,5.2c-4.7.4-7.9.2-13.8,2.6a13,13,0,0,0-5.1,3.3c-.5.5-.2.4-1.1-.1a8.19,8.19,0,0,1-3.9-6.3c-.1-3.5,0-3.3.7-3.8a26.05,26.05,0,0,1,11.2-3.7c6.9-.3,12.2.3,16.3-.7a16.2,16.2,0,0,0,7.9-4.6C97.6,69.5,98.2,68.7,98.1,69.8ZM60.3,85.2a12.56,12.56,0,0,1-5.4,4,15.85,15.85,0,0,1-6.7,1.3c-.4.1-.5,0-.5-.4A21.68,21.68,0,0,0,46,84.6c-1-2.2-.9-7.2,1.1-9.4a10.2,10.2,0,0,0,5.6,4.1c1.9.5,2.9.8,7,0C59.7,79.4,59.3,83.4,60.3,85.2Zm-6.2-7.4c-5.9-1.7-6.7-6.3-7.2-8.9a29.59,29.59,0,0,0-2.1-5.8c-.4-.8.3-.4.3-.4a20.07,20.07,0,0,0,6.4,1.6c3.7.4,5.5-.4,11.5-.7A15.92,15.92,0,0,1,73.7,67a69.36,69.36,0,0,1,5.4,5.3c.2.2.7.7-.1.7a34.9,34.9,0,0,0-12.6,1.4C62.5,75.8,59.1,79.3,54.1,77.8ZM74.3,64.5c-.1.3.2,1-.6.4a32,32,0,0,0-4-2.1c-.5-.2-.3-.3-.3-.3-.4-.9.5-4.2,2.6-6.4s3.5-2.5,9-6.2,4.4-6.8,4.2-8.7-1.9-4.2-2.5-5-.3-.9,0-.7a4.71,4.71,0,0,0,.5.2c5.8,3.1,6.9,7.8,6.2,10.9-.9,3.8-5.7,6.3-9.5,8.7A14.7,14.7,0,0,0,74.3,64.5Zm2.3-.6a36.64,36.64,0,0,0,8.1-2.2c.3-.1.5-.5.5,3s-2.1,6.1-2.5,6.8-.3.6-1.2.2a14,14,0,0,1-3-2.3,7.32,7.32,0,0,1-2.2-5.1C76.3,63.9,76.6,63.9,76.6,63.9Zm6.8-22.4c1.6,4.7-4.3,7.9-5.7,8.5s-4.6,3-5.6,3.6c-.2.1-.2,0-.2,0a7.27,7.27,0,0,1,1.1-3,41.54,41.54,0,0,1,4.9-3.4c1.3-.7,3.1-3.3.2-6a11,11,0,0,0-6.2-3.1c-.6-.2-2.1,0-1.6-1.1A5.17,5.17,0,0,1,72,35c.3-.2,1.3-.8,2.1-1.3a10.81,10.81,0,0,0,2.1-1.8c.2-.2.3-.4.7,0C77.5,32.5,81.8,36.8,83.4,41.5ZM69.9,53.8a14.2,14.2,0,0,1-5.3-3.7c-2-2.4-1.7-3.8-1.2-5.8A5.32,5.32,0,0,0,69.3,46a14.67,14.67,0,0,0,6.1-4.1.57.57,0,0,1,.8-.2,3.08,3.08,0,0,1,1.6,2.2A2.17,2.17,0,0,1,76.6,46a43,43,0,0,0-4,2.5A7.26,7.26,0,0,0,69.9,53.8Zm4-13.3s.6.2,0,.6a39.28,39.28,0,0,1-4.1,2.8c-2.9,1.8-7.4-.6-3.2-3.2C68.9,39.2,73.4,40.4,73.9,40.5Zm-5.7-2.3c-1,.6-5.5,1-7,6.5-1.5,5.7,5.9,9.5,6.2,9.8,0,0,.2.1-.4.1s-6.8.4-10.5-4.2c-3.5-4.3.9-9.4,2.2-10.2,1.1-.7,4.6-3.5,9.5-2.6C68.2,37.6,69,37.7,68.2,38.2Zm-6.5,18c0-.6.5-.3.5-.3a23.22,23.22,0,0,0,6.1.6,5.64,5.64,0,0,1,.7-.1c.5,0,.6.1.1.7-1.2,1.2-1.5,4.3-1.6,4.8s.3.5-.3.3a35.93,35.93,0,0,0-4.7-.3c-.7-.1-.4-.2-.5-.5A44.05,44.05,0,0,1,61.7,56.2ZM46.8,41c1-4,4.3-11.5,14.5-12a14.9,14.9,0,0,1,17-3.4s9.1-2.1,11.8,4.9c0,0,13.6,2.9,9.3,15.6-1.7,5.1-6.5,9.6-11,12-5.8,3.2-11.4,4.3-11.6,4,0,0,1-3.7,6-6.5s7.9-5.4,8.5-10.3-4-8.8-5.7-9.9-7.9-5.2-8.5-5.7-.8-.7-1.4,0a11.18,11.18,0,0,1-3.5,2.9,15.77,15.77,0,0,0-3.5,2.9s-5.1-.2-8.2,1.4a15.94,15.94,0,0,0-5.3,4.2s-5-.6-8.7,2.2A13.14,13.14,0,0,1,46.8,41Zm4.6,1.9a14.87,14.87,0,0,1,2.5-.3c.6.1.4.2.4.5,0,.1-.2.5-.3.8a8.45,8.45,0,0,0,.5,6.6,9.94,9.94,0,0,0,4,3.9c.6.3,1.4.4,1.4,1a22.64,22.64,0,0,0,.3,5.8c.2.9-.3.8-.3.8a21,21,0,0,1-10,.4,20.7,20.7,0,0,1-8.2-3.5,22.63,22.63,0,0,1,2.4-9.6C46.7,43.8,50.5,43.2,51.4,42.9ZM28.9,66.7A47.32,47.32,0,0,1,35,52.5c2.6-4.1,8.7-8.8,9.2-9.2s.4.2.4.2-.2,1.4-.3,2.2c0,.3-.3.5-.5.8-3.7,5.2-3.9,12.4-3.9,12.4,0,1.1.2,1.7-.3,1.9-5.6,1.8-7.8,4.3-9.8,5.9C28.6,67.7,28.6,67.8,28.9,66.7Zm-3.6,7.2A38.81,38.81,0,0,0,30,69.5a22.31,22.31,0,0,1,11.2-7.2.91.91,0,0,1,1.1.3,17.48,17.48,0,0,1,2.4,4.8,14.69,14.69,0,0,1,.3,7.7c-.3,1.5-1.1,2.2-1.4,4.4a21.15,21.15,0,0,1-10.3-.7C27.9,77.1,26.1,74.4,25.3,73.9ZM36.6,98.2c-6.6-7.7-8.3-17.9-8.4-18.5s.2-.6.2-.6c1.9,1.2,3.7,1.6,7,2.3a33,33,0,0,0,8.2.2c-.1,2.4,1.6,6.2,2.1,7.8a21,21,0,0,1,.7,3.1,20.58,20.58,0,0,0,12.1-3.2c1.3-.9,2.4-2.2,2.6-2a19.26,19.26,0,0,0,4.5,3.6c.7.3.8.4,1.2-.2a22.84,22.84,0,0,1,6.7-4.2A45.58,45.58,0,0,1,80.8,85c-.1,3.7-2.6,8.6-4.6,11.4a26.18,26.18,0,0,1-12,8.9,30.18,30.18,0,0,1-12.9,1.2C46.5,105.5,41.4,103.9,36.6,98.2Zm70.2-18.9a30.75,30.75,0,0,1-2.3,8.3,35.22,35.22,0,0,1-7.6,12.3,35.08,35.08,0,0,1-11.2,8.6,33.31,33.31,0,0,1-9.8,3.5,40.49,40.49,0,0,1-13.7.5,37.56,37.56,0,0,1-8.6-2.1,29.59,29.59,0,0,1-5.1-2.3s-.4-.1,0-.1c0,0,8,1.8,14.5-.2,4.3-1.3,13.9-4.4,18.8-17A36.7,36.7,0,0,0,83,85.5c0-.5.1-.6.4-.7a2.7,2.7,0,0,0,.9,0,18.62,18.62,0,0,0,3.3-.4s.6-.3.5.4c0,0,0,2.7-2.1,7.6a28.72,28.72,0,0,1-6.8,9.7,34,34,0,0,1-8,5.8,22.72,22.72,0,0,1-8.1,2.4,5.64,5.64,0,0,0-.7.1c-.3,0-.3.3.1.3a39.45,39.45,0,0,0,11.1-.6,30.35,30.35,0,0,0,12.6-5.6A37.61,37.61,0,0,0,96,93.3a36.11,36.11,0,0,0,4-11.7c.6-4.2.4-3.1.4-3.4s0-.4.4-.4,4.6.1,5.7-.1C107.3,77.7,106.9,79,106.8,79.3Zm7.6-5.5a26.72,26.72,0,0,1-7.1,2.1,31.65,31.65,0,0,1-7.5.1c-1.2-.2-1-.4-.7-.9s1.2-2.2.7-6.6a1.63,1.63,0,0,1,.1-1.2c.3-.6,2.6-4.8,5.7-6.1a.88.88,0,0,1,1.2.1,16.13,16.13,0,0,1,4.2,5.1c1.3,2.8,2.1,5,3.3,6.6C114.9,73.7,114.8,73.6,114.4,73.8Z"/><path class="cls-3" d="M112.2,83.1a2.9,2.9,0,1,1,2.9,3A2.93,2.93,0,0,1,112.2,83.1Zm2.9,3.6a3.6,3.6,0,1,0,0-7.2,3.52,3.52,0,0,0-3.6,3.6A3.58,3.58,0,0,0,115.1,86.7Zm-.7-3.3h.7l1.1,1.8h.7l-1.2-1.8c.6-.1,1.1-.4,1.1-1.1s-.5-1.2-1.5-1.2h-1.6v4.1h.6V83.4Zm0-.5V81.6h.9c.4,0,.9.1.9.6s-.5.7-1,.7Z"/><path class="cls-3" d="M14.3,34.9a2,2,0,0,1,2.7-.6,2,2,0,0,1-2.2,3.4A2.07,2.07,0,0,1,14.3,34.9Z"/><path class="cls-3" d="M20.4,22.1l2.9-2.8c1.1-1,2-1.2,2.7-.3a1.61,1.61,0,0,1-.2,2.5l-3.1,3ZM25,29c.4.4.4.5,0,.9l.2.2,1.9-1.8-.1-.2c-.4.3-.5.3-.9-.1l-2.5-2.6,3.2-3.1a3.07,3.07,0,0,0,.4-4.4c-1.4-1.4-2.9-1.3-4.6.3L18,22.5l.2.2c.4-.3.5-.3.9.1Z"/><path class="cls-3" d="M37.4,14.8l-3.9,2.4-.8-5.4ZM35,21.5l-.1-.2c-.4.3-.6.3-.7.1a1.72,1.72,0,0,1-.1-.8l-.3-1.9,4.8-3,1.9,1.2c.1.1.3.2.4.4s0,.3-.4.6l.1.2,2.5-1.6-.1-.3a.74.74,0,0,1-.9,0l-8-5.2c-.1-.1-.3-.2-.4-.3s.1-.4.3-.5l-.1-.2-3.2,2,.1.2c.4-.2.6-.2.7,0s.1.2.1.4L33,21.9a.69.69,0,0,1-.3.9l.2.2Z"/><path class="cls-3" d="M43.7,13.1H44a.37.37,0,0,0,.1.3c.2.5,2.4.6,4.6-.2,2-.7,3-1.8,2.6-2.8-1-2.8-7.9,2.9-9.4-1.2-.8-2.2.8-3.8,3-4.6A9.89,9.89,0,0,1,49,4c.1,0,.2-.1.2-.4h.3V6.1h-.3c0-.1,0-.1-.1-.3-.1-.6-2.1-.6-3.8,0-2.3.8-2.4,1.8-2.1,2.7,1,2.6,7.9-2.9,9.4,1,.8,2.1-.3,3.7-3.6,4.9-2.3.8-4.1.5-4.6.7a.55.55,0,0,0-.3.5h-.3Z"/><path class="cls-3" d="M62,6.6l-4.5.7L58.9,2Zm-4.8,5.2v-.3c-.5.1-.6,0-.7-.2s.1-.4.2-.8l.5-1.9,5.6-.9,1.3,1.8c.1.2.2.3.2.5s-.1.3-.7.4v.3l2.9-.4V10a.66.66,0,0,1-.8-.4L60.4,1.7c-.1-.2-.2-.3-.2-.4s.3-.3.5-.4V.6l-3.8.6v.2c.4,0,.6.1.6.2a.76.76,0,0,1-.1.4L55,11.1c-.1.4-.2.6-.7.7v.3Z"/><path class="cls-3" d="M70.8,1.4l3.3.2c2.9.2,3.9,2,3.8,4.1s-1.4,3.8-4.3,3.6l-3.3-.2ZM68.9,9.5c0,.5-.1.7-.6.6v.3l5.7.3c3.7.2,5.4-2,5.6-4.9S78.3.5,74.6.3L68.9,0V.3c.5,0,.6.2.5.7Z"/><path class="cls-3" d="M84.9,2.6c.1-.5.1-.6-.4-.8l.1-.3,9.1,2.6c.5.1.6,0,.7-.4l.3.1L94,6.2l-.3-.1c.1-.4,0-.6-.4-.7l-7.1-2-.9,3,5,1.4c.4.1.6,0,.7-.4l.3.1-.7,2.4-.3-.1c.1-.4,0-.6-.4-.7l-5-1.4L84,10.9,91.3,13c.4.1.6,0,.7-.4l.3.1-.7,2.4-.1-.1c.1-.4,0-.6-.4-.7l-9.3-2.7.1-.3c.4.1.5,0,.7-.5Z"/><path class="cls-3" d="M94.4,15.6l.1-.2c.4.2.6.2.9-.3l4.2-7.4c.3-.5.2-.6-.2-.9l.1-.2,3,1.7-.1.2c-.4-.2-.6-.2-.7-.1v.5l1.9,9.5,3.6-6.4c.3-.5.2-.6-.2-.9l.1-.2,2.2,1.3-.1.2c-.4-.2-.6-.2-.9.3l-4.2,7.4c-.3.5-.2.6.2.9l-.1.2-2.7-1.5.1-.2c.5.3.6.3.7.1s0-.3,0-.5l-2-10-3.8,6.7c-.3.5-.2.6.2.9l-.1.2Z"/><path class="cls-3" d="M114.7,24.3l-3.4-3.1,5-2.2Zm-7.1-.5.2-.2q-.45-.45-.3-.6a2.39,2.39,0,0,1,.7-.3l1.8-.8,4.2,3.8-.6,2.1c-.1.2-.1.3-.2.5s-.3.1-.7-.3l-.2.2,2.2,2,.2-.2a.56.56,0,0,1-.2-.8l2.8-9.1c.1-.2.1-.3.2-.5s.4,0,.6.2l.2-.2L115.7,17l-.2.2c.3.3.3.5.2.6s-.1.1-.4.2l-8.5,3.9a.68.68,0,0,1-1-.1l-.2.2Z"/><path class="cls-3" d="M125.8,35.6a1.93,1.93,0,0,1-.6,2.7,2.07,2.07,0,0,1-2.8-.6,1.9,1.9,0,0,1,.7-2.7A1.87,1.87,0,0,1,125.8,35.6Z"/><path class="cls-3" d="M10.2,54.5l.1-.3c.4.1.6.1.7-.4l1.3-3.4L4.6,47.6c-.5-.2-.6-.1-.8.3l-.3-.1.9-2.6.3.1c-.2.5-.1.6.4.8l7.7,2.8,1.3-3.4c.2-.4,0-.6-.3-.7l.1-.3,2.3.9-.1.3c-.4-.1-.6-.1-.8.3l-3,8.3c-.2.4,0,.6.3.8l-.1.3Z"/><path class="cls-3" d="M9.6,62.5c-.4,2.7-2.4,4.1-4.6,3.8a4,4,0,0,1-3.4-4.9C2,58.7,4,57.3,6.2,57.6S9.9,59.8,9.6,62.5Zm1.3.2c.5-3.6-1.6-6.2-4.5-6.6S.8,57.7.3,61.2s1.6,6.2,4.5,6.6S10.4,66.3,10.9,62.7Z"/><path class="cls-3" d="M4.1,83.4c-2.6.3-3.7-2.4-4-4.7s.2-5.2,2.8-5.5L9,72.5c.5-.1.6-.2.6-.6h.3l.3,2.4H9.9c0-.4-.2-.5-.7-.4l-5.8.7c-1.8.2-2.3,1.7-2,4s1,3.6,2.8,3.4l5.8-.7c.5-.1.6-.2.6-.6h.3l.3,2.4h-.3c0-.4-.2-.5-.7-.4Z"/><path class="cls-3" d="M11.9,89.6l1.7,4.5c.5,1.3.2,1.8-.9,2.3a1.34,1.34,0,0,1-2-.9L8.9,90.8ZM7.6,91.2,9,94.6,6.4,98c-.2.3-.3.4-.4.4s-.2,0-.3-.3l-.3.1.9,2.4.3-.1c-.1-.2,0-.4.2-.7L9.6,96c.7,1.7,1.9,2.3,3.6,1.7s2.4-1.9,1.7-3.8l-2.5-6.7-.4.1c.2.5.1.6-.4.8l-8,3c-.5.2-.6.1-.8-.3l-.3.1.9,2.5.3-.1c-.2-.5-.1-.6.4-.8Z"/><path class="cls-3" d="M9.2,106.3l.2-.2c.3.4.5.5.9.1l7-4.9c.4-.3.5-.5.2-.9l.2-.2,2,2.8-.2.2c-.3-.4-.4-.5-.5-.4s-.1.2-.2.4l-2.4,9.4,6-4.2c.4-.3.5-.5.2-.9l.2-.2,1.5,2.1-.2.2c-.3-.4-.5-.5-.9-.1l-7,4.9c-.4.3-.5.5-.2.9l-.2.2L14,112.9l.2-.2c.4.5.4.5.6.4s.1-.2.2-.5l2.5-9.8-6.3,4.4c-.4.3-.5.5-.2.9l-.2.2Z"/><path class="cls-3" d="M28.1,121.4l-3.4-3,4.9-2.3Zm-7.2-.4.2-.2c-.4-.3-.4-.5-.3-.6a2.39,2.39,0,0,1,.7-.3l1.8-.8,4.3,3.8L27,125c-.1.2-.1.3-.2.5s-.3.1-.7-.3l-.2.2,2.2,2,.2-.2a.56.56,0,0,1-.2-.8l2.7-9.1c.1-.2.1-.3.2-.5s.4,0,.6.1l.2-.2-2.9-2.5-.2.2c.3.3.3.5.2.6s-.1.1-.4.2l-8.5,4a.68.68,0,0,1-1-.1l-.2.2Z"/><path class="cls-3" d="M41.2,134.7l.1-.3c.4.2.6.2.9-.3l3.4-6.6h0l-7.4,5.1-.2-9h0l-3.4,6.6c-.2.5-.2.6.3.9l-.1.3-2.3-1.2.1-.3c.4.2.6.2.9-.3l3.9-7.6c.2-.5.2-.6-.3-.9l.1-.3,2.8,1.4-.1.3c-.3-.1-.5-.2-.6,0v.3l.2,7.4,6.1-4.2c.2-.1.2-.2.3-.2s-.1-.3-.4-.5l.1-.3,2.8,1.5-.1.3c-.4-.2-.5-.1-.8.3l-3.9,7.6c-.2.5-.2.6.2.8l-.1.3Z"/><path class="cls-3" d="M52.7,129c.1-.5,0-.7-.4-.8l.1-.3,9.3,2c.5.1.6,0,.7-.5l.3.1-.5,2.4-.3-.1c.1-.4,0-.6-.5-.7l-7.2-1.5-.6,3,5.1,1.1c.5.1.6,0,.7-.4l.3.1-.5,2.4-.3-.1c.1-.4,0-.6-.5-.7l-5.1-1.1-.7,3.3,7.5,1.6c.5.1.6,0,.7-.4l.3.1-.5,2.4-.3-.1c.1-.4,0-.6-.5-.7l-9.5-2,.1-.3c.4.1.6,0,.7-.5Z"/><path class="cls-3" d="M66.7,140.9v-.3c.5,0,.6-.1.6-.7l-.3-8.5c0-.5-.2-.7-.7-.6v-.3l3.4-.1v.3c-.5,0-.6.1-.6.2s.1.2.3.4l6.6,7.1-.3-7.3c0-.5-.2-.7-.7-.6v-.3l2.6-.1v.3c-.5,0-.6.1-.6.7l.3,8.5c0,.5.2.7.7.6v.3l-3.1.1v-.3c.6,0,.7-.1.7-.2s-.1-.2-.3-.4l-6.9-7.4.3,7.6c0,.5.2.6.7.6v.3Z"/><path class="cls-3" d="M90.9,128.7l-.3.1c-.1-.4-.3-.5-.7-.4l-3.5.9,2.1,7.9c.1.5.3.6.7.5l.1.3-2.6.7-.1-.3c.5-.1.5-.3.4-.8l-2.1-7.9-3.5.9c-.5.1-.5.3-.4.7l-.3.1-.6-2.4.3-.1c.1.4.3.5.7.4l8.5-2.3c.5-.1.5-.3.4-.7l.3-.1Z"/><path class="cls-3" d="M104.7,130.7c-1.2.7-2.3.5-2.9-.5a6.41,6.41,0,0,1-.9-3.6,3.14,3.14,0,0,1,1.7-2,1.55,1.55,0,0,1,2.4.6,7.52,7.52,0,0,1,1,3.4A2.19,2.19,0,0,1,104.7,130.7Zm-.3,1.3a5.71,5.71,0,0,0,1.6-1.8,7.35,7.35,0,0,0,.9-2.6,6.68,6.68,0,0,0-1-3.7,2.31,2.31,0,0,0-3.2-.6,5.91,5.91,0,0,0-2.4,3.7,5.79,5.79,0,0,0,.4,4.2A2.54,2.54,0,0,0,104.4,132Z"/><path class="cls-3" d="M107.6,121a9,9,0,0,0-1,.9l-.4-.9a4.19,4.19,0,0,0,1.4-.9l-1.4-3c-2.2-4.8-2.5-8-1.2-9a.82.82,0,0,1,1.2.1,1,1,0,0,1-.2,1.4c-.4.4-.9.1-1.2.2s.3,2.1,1.9,5.4l2,4.1c1-.8,1.6-1.3,1.9-1.6l.4.9a21.16,21.16,0,0,0-2,1.2l1.3,2.6c2.8,5.8,3.5,9.2,2.2,10.2a.71.71,0,0,1-1.1-.1,1.14,1.14,0,0,1,.2-1.6,5.9,5.9,0,0,1,.8-.4c.3-.2-.3-1.4-1.5-3.9l-3-6C107.9,120.8,107.7,120.9,107.6,121Z"/><path class="cls-3" d="M117.6,108.5l2.8-3.9c.8-1.1,1.4-1.2,2.4-.5a1.27,1.27,0,0,1,.3,2.1l-2.9,4.1Zm3.6,2.6,2.2-3,4.3.3c.3,0,.5,0,.6.1s.1.1-.1.4l.2.2,1.5-2.1-.2-.2a.57.57,0,0,1-.7.2l-4.7-.2c1-1.5.9-2.9-.6-4a2.71,2.71,0,0,0-4.1.7l-4.2,5.8.2.2c.3-.4.4-.4.9-.1l6.9,5c.4.3.5.5.2.9l.2.2,1.5-2.1-.2-.2c-.3.4-.4.4-.9.1Z"/><path class="cls-3" d="M126.2,93.4a4,4,0,0,1,5.4-2.5c2.1.8,3.1,3.1,2.1,5.6a4,4,0,0,1-5.4,2.5A4.09,4.09,0,0,1,126.2,93.4Zm-1.2-.5c-1.4,3.4,0,6.4,2.7,7.5s5.8-.1,7.2-3.5,0-6.4-2.8-7.5S126.3,89.6,125,92.9Z"/><path class="cls-3" d="M135.4,85.4l.1-.3c.1,0,.2.1.3.1.5.1,1.7-1.8,2.1-4.1.3-2.1-.1-3.5-1.1-3.6-3-.5-1.3,8.3-5.7,7.6-2.4-.4-2.9-2.6-2.6-4.9a11.73,11.73,0,0,1,1.5-3.9c0-.1,0-.2-.3-.4l.2-.3,2.2,1.2-.2.3c-.1,0-.1-.1-.3-.1-.5-.1-1.5,1.7-1.8,3.5-.4,2.4.4,3,1.3,3.1,2.8.4,1.3-8.3,5.5-7.7,2.2.3,3.1,2,2.5,5.6a14.13,14.13,0,0,1-1.7,4.3.55.55,0,0,0,.3.5l-.1.3Z"/><path class="cls-3" d="M130.5,70.9c-.5,0-.6.1-.6.6h-.3l-.6-9.4c0-.5-.2-.6-.6-.5v-.3l2.5-.2v.3c-.4,0-.6.2-.5.6l.5,7.4,3.1-.2-.4-5.2c0-.5-.2-.6-.6-.5v-.3l2.5-.2v.3c-.4,0-.6.2-.5.6l.4,5.2,3.3-.2-.5-7.6c0-.5-.2-.6-.6-.5v-.3l2.5-.2v.3c-.4,0-.6.2-.5.6l.7,9.7H140c0-.4-.2-.5-.7-.5Z"/><path class="cls-3" d="M135.2,55.3V55h.3c.5-.2.7-2.4.1-4.6-.6-2-1.6-3.1-2.6-2.8-2.9.9,2.4,8.1-1.8,9.3-2.3.7-3.8-1-4.4-3.3a12.72,12.72,0,0,1-.4-4.2c0-.1-.1-.2-.4-.3v-.3l2.5.2v.3h-.3c-.5.2-.6,2.2-.1,3.9.7,2.3,1.7,2.5,2.6,2.3,2.7-.8-2.5-8.1,1.6-9.3,2.1-.7,3.7.5,4.7,3.9.7,2.3.2,4.2.4,4.6a.55.55,0,0,0,.5.3v.3Z"/></svg>